<mxfile host="app.diagrams.net" modified="2023-09-24T04:19:34.200Z" agent="Mozilla/5.0 (Windows NT 10.0; Win64; x64) AppleWebKit/537.36 (KHTML, like Gecko) Chrome/116.0.0.0 Safari/537.36" etag="e_LtXkmHi0Y_N3y9LOCn" version="21.8.1" type="github">
  <diagram name="PÃ¡gina-1" id="knVnsXhcvulUXnF5gRkf">
    <mxGraphModel dx="2625" dy="1415" grid="1" gridSize="10" guides="1" tooltips="1" connect="1" arrows="1" fold="1" page="1" pageScale="1" pageWidth="1920" pageHeight="1200" math="0" shadow="0">
      <root>
        <mxCell id="0" />
        <mxCell id="1" parent="0" />
        <mxCell id="qHqgIJDqdc0Txp3HUpsl-9" value="" style="ellipse;whiteSpace=wrap;html=1;aspect=fixed;" vertex="1" parent="1">
          <mxGeometry x="45" y="48" width="50" height="50" as="geometry" />
        </mxCell>
        <mxCell id="qHqgIJDqdc0Txp3HUpsl-12" value="" style="endArrow=none;html=1;rounded=0;entryX=0.5;entryY=1;entryDx=0;entryDy=0;exitX=0.5;exitY=0;exitDx=0;exitDy=0;" edge="1" parent="1" source="qHqgIJDqdc0Txp3HUpsl-21" target="qHqgIJDqdc0Txp3HUpsl-9">
          <mxGeometry width="50" height="50" relative="1" as="geometry">
            <mxPoint x="67.08" y="190" as="sourcePoint" />
            <mxPoint x="67.08" y="140" as="targetPoint" />
          </mxGeometry>
        </mxCell>
        <mxCell id="qHqgIJDqdc0Txp3HUpsl-21" value="" style="ellipse;whiteSpace=wrap;html=1;aspect=fixed;" vertex="1" parent="1">
          <mxGeometry x="40" y="120" width="50" height="50" as="geometry" />
        </mxCell>
        <mxCell id="qHqgIJDqdc0Txp3HUpsl-22" value="" style="endArrow=none;html=1;rounded=0;entryX=0.5;entryY=1;entryDx=0;entryDy=0;" edge="1" parent="1" source="qHqgIJDqdc0Txp3HUpsl-24" target="qHqgIJDqdc0Txp3HUpsl-21">
          <mxGeometry width="50" height="50" relative="1" as="geometry">
            <mxPoint x="67.5" y="300" as="sourcePoint" />
            <mxPoint x="447.5" y="200" as="targetPoint" />
          </mxGeometry>
        </mxCell>
        <mxCell id="qHqgIJDqdc0Txp3HUpsl-25" value="" style="endArrow=none;html=1;rounded=0;entryX=0.5;entryY=1;entryDx=0;entryDy=0;exitX=0.5;exitY=0;exitDx=0;exitDy=0;" edge="1" parent="1" source="qHqgIJDqdc0Txp3HUpsl-26" target="qHqgIJDqdc0Txp3HUpsl-24">
          <mxGeometry width="50" height="50" relative="1" as="geometry">
            <mxPoint x="67.08" y="420" as="sourcePoint" />
            <mxPoint x="67.08" y="370" as="targetPoint" />
          </mxGeometry>
        </mxCell>
        <mxCell id="qHqgIJDqdc0Txp3HUpsl-27" value="" style="endArrow=none;html=1;rounded=0;entryX=0.5;entryY=1;entryDx=0;entryDy=0;exitX=0.5;exitY=0;exitDx=0;exitDy=0;" edge="1" parent="1" target="qHqgIJDqdc0Txp3HUpsl-26" source="qHqgIJDqdc0Txp3HUpsl-120">
          <mxGeometry width="50" height="50" relative="1" as="geometry">
            <mxPoint x="67.5" y="350" as="sourcePoint" />
            <mxPoint x="447.5" y="430" as="targetPoint" />
          </mxGeometry>
        </mxCell>
        <mxCell id="qHqgIJDqdc0Txp3HUpsl-28" value="" style="endArrow=none;html=1;rounded=0;entryX=0.5;entryY=1;entryDx=0;entryDy=0;" edge="1" parent="1" source="qHqgIJDqdc0Txp3HUpsl-26" target="qHqgIJDqdc0Txp3HUpsl-24">
          <mxGeometry width="50" height="50" relative="1" as="geometry">
            <mxPoint x="67.5" y="300" as="sourcePoint" />
            <mxPoint x="67.5" y="170" as="targetPoint" />
          </mxGeometry>
        </mxCell>
        <mxCell id="qHqgIJDqdc0Txp3HUpsl-24" value="" style="ellipse;whiteSpace=wrap;html=1;aspect=fixed;" vertex="1" parent="1">
          <mxGeometry x="45" y="195" width="45" height="45" as="geometry" />
        </mxCell>
        <mxCell id="qHqgIJDqdc0Txp3HUpsl-29" value="" style="endArrow=none;html=1;rounded=0;entryX=0.5;entryY=1;entryDx=0;entryDy=0;" edge="1" parent="1" target="qHqgIJDqdc0Txp3HUpsl-26">
          <mxGeometry width="50" height="50" relative="1" as="geometry">
            <mxPoint x="67.5" y="300" as="sourcePoint" />
            <mxPoint x="67.5" y="240" as="targetPoint" />
          </mxGeometry>
        </mxCell>
        <mxCell id="qHqgIJDqdc0Txp3HUpsl-26" value="" style="ellipse;whiteSpace=wrap;html=1;aspect=fixed;" vertex="1" parent="1">
          <mxGeometry x="42.5" y="270" width="50" height="50" as="geometry" />
        </mxCell>
        <mxCell id="qHqgIJDqdc0Txp3HUpsl-31" value="" style="endArrow=none;html=1;rounded=0;entryX=0.5;entryY=1;entryDx=0;entryDy=0;exitX=0.5;exitY=0;exitDx=0;exitDy=0;" edge="1" parent="1" target="qHqgIJDqdc0Txp3HUpsl-120">
          <mxGeometry width="50" height="50" relative="1" as="geometry">
            <mxPoint x="67.5" y="430" as="sourcePoint" />
            <mxPoint x="67.5" y="400" as="targetPoint" />
          </mxGeometry>
        </mxCell>
        <mxCell id="qHqgIJDqdc0Txp3HUpsl-33" value="" style="endArrow=none;html=1;rounded=0;" edge="1" parent="1">
          <mxGeometry width="50" height="50" relative="1" as="geometry">
            <mxPoint x="70" y="540" as="sourcePoint" />
            <mxPoint x="68" y="430" as="targetPoint" />
          </mxGeometry>
        </mxCell>
        <mxCell id="qHqgIJDqdc0Txp3HUpsl-34" value="No.2000" style="text;html=1;align=center;verticalAlign=middle;resizable=0;points=[];autosize=1;strokeColor=none;fillColor=none;" vertex="1" parent="1">
          <mxGeometry x="32.5" y="20" width="70" height="30" as="geometry" />
        </mxCell>
        <mxCell id="qHqgIJDqdc0Txp3HUpsl-35" value="Tornear y cortar" style="text;html=1;align=center;verticalAlign=middle;resizable=0;points=[];autosize=1;strokeColor=none;fillColor=none;" vertex="1" parent="1">
          <mxGeometry x="102.5" y="60" width="110" height="30" as="geometry" />
        </mxCell>
        <mxCell id="qHqgIJDqdc0Txp3HUpsl-36" value="roscar y cortar" style="text;html=1;align=center;verticalAlign=middle;resizable=0;points=[];autosize=1;strokeColor=none;fillColor=none;" vertex="1" parent="1">
          <mxGeometry x="107.5" y="130" width="100" height="30" as="geometry" />
        </mxCell>
        <mxCell id="qHqgIJDqdc0Txp3HUpsl-37" value="taladrar y escoriar" style="text;html=1;align=center;verticalAlign=middle;resizable=0;points=[];autosize=1;strokeColor=none;fillColor=none;" vertex="1" parent="1">
          <mxGeometry x="105" y="202.5" width="120" height="30" as="geometry" />
        </mxCell>
        <mxCell id="qHqgIJDqdc0Txp3HUpsl-38" value="fresar ranuras" style="text;html=1;align=center;verticalAlign=middle;resizable=0;points=[];autosize=1;strokeColor=none;fillColor=none;" vertex="1" parent="1">
          <mxGeometry x="115" y="280" width="100" height="30" as="geometry" />
        </mxCell>
        <mxCell id="qHqgIJDqdc0Txp3HUpsl-39" value="inspeccionar&lt;br&gt;" style="text;html=1;align=center;verticalAlign=middle;resizable=0;points=[];autosize=1;strokeColor=none;fillColor=none;" vertex="1" parent="1">
          <mxGeometry x="105" y="375" width="90" height="30" as="geometry" />
        </mxCell>
        <mxCell id="qHqgIJDqdc0Txp3HUpsl-40" value="" style="ellipse;whiteSpace=wrap;html=1;aspect=fixed;" vertex="1" parent="1">
          <mxGeometry x="270" y="60" width="50" height="50" as="geometry" />
        </mxCell>
        <mxCell id="qHqgIJDqdc0Txp3HUpsl-41" value="" style="endArrow=none;html=1;rounded=0;entryX=0.5;entryY=1;entryDx=0;entryDy=0;exitX=0.5;exitY=0;exitDx=0;exitDy=0;" edge="1" parent="1" source="qHqgIJDqdc0Txp3HUpsl-42" target="qHqgIJDqdc0Txp3HUpsl-40">
          <mxGeometry width="50" height="50" relative="1" as="geometry">
            <mxPoint x="294.58" y="200" as="sourcePoint" />
            <mxPoint x="294.58" y="150" as="targetPoint" />
          </mxGeometry>
        </mxCell>
        <mxCell id="qHqgIJDqdc0Txp3HUpsl-42" value="" style="ellipse;whiteSpace=wrap;html=1;aspect=fixed;" vertex="1" parent="1">
          <mxGeometry x="267.5" y="130" width="50" height="50" as="geometry" />
        </mxCell>
        <mxCell id="qHqgIJDqdc0Txp3HUpsl-43" value="" style="endArrow=none;html=1;rounded=0;entryX=0.5;entryY=1;entryDx=0;entryDy=0;" edge="1" parent="1" source="qHqgIJDqdc0Txp3HUpsl-47" target="qHqgIJDqdc0Txp3HUpsl-42">
          <mxGeometry width="50" height="50" relative="1" as="geometry">
            <mxPoint x="295" y="310" as="sourcePoint" />
            <mxPoint x="675" y="210" as="targetPoint" />
          </mxGeometry>
        </mxCell>
        <mxCell id="qHqgIJDqdc0Txp3HUpsl-44" value="" style="endArrow=none;html=1;rounded=0;entryX=0.5;entryY=1;entryDx=0;entryDy=0;exitX=0.5;exitY=0;exitDx=0;exitDy=0;" edge="1" parent="1" source="qHqgIJDqdc0Txp3HUpsl-49" target="qHqgIJDqdc0Txp3HUpsl-47">
          <mxGeometry width="50" height="50" relative="1" as="geometry">
            <mxPoint x="294.58" y="430" as="sourcePoint" />
            <mxPoint x="294.58" y="380" as="targetPoint" />
          </mxGeometry>
        </mxCell>
        <mxCell id="qHqgIJDqdc0Txp3HUpsl-45" value="" style="endArrow=none;html=1;rounded=0;entryX=0.5;entryY=1;entryDx=0;entryDy=0;exitX=0.5;exitY=0;exitDx=0;exitDy=0;" edge="1" parent="1" source="qHqgIJDqdc0Txp3HUpsl-50" target="qHqgIJDqdc0Txp3HUpsl-49">
          <mxGeometry width="50" height="50" relative="1" as="geometry">
            <mxPoint x="295" y="540" as="sourcePoint" />
            <mxPoint x="675" y="440" as="targetPoint" />
          </mxGeometry>
        </mxCell>
        <mxCell id="qHqgIJDqdc0Txp3HUpsl-46" value="" style="endArrow=none;html=1;rounded=0;entryX=0.5;entryY=1;entryDx=0;entryDy=0;" edge="1" parent="1" source="qHqgIJDqdc0Txp3HUpsl-49" target="qHqgIJDqdc0Txp3HUpsl-47">
          <mxGeometry width="50" height="50" relative="1" as="geometry">
            <mxPoint x="295" y="310" as="sourcePoint" />
            <mxPoint x="295" y="180" as="targetPoint" />
          </mxGeometry>
        </mxCell>
        <mxCell id="qHqgIJDqdc0Txp3HUpsl-47" value="" style="ellipse;whiteSpace=wrap;html=1;aspect=fixed;" vertex="1" parent="1">
          <mxGeometry x="272.5" y="205" width="45" height="45" as="geometry" />
        </mxCell>
        <mxCell id="qHqgIJDqdc0Txp3HUpsl-48" value="" style="endArrow=none;html=1;rounded=0;entryX=0.5;entryY=1;entryDx=0;entryDy=0;" edge="1" parent="1" target="qHqgIJDqdc0Txp3HUpsl-49">
          <mxGeometry width="50" height="50" relative="1" as="geometry">
            <mxPoint x="295" y="310" as="sourcePoint" />
            <mxPoint x="295" y="250" as="targetPoint" />
          </mxGeometry>
        </mxCell>
        <mxCell id="qHqgIJDqdc0Txp3HUpsl-49" value="" style="ellipse;whiteSpace=wrap;html=1;aspect=fixed;" vertex="1" parent="1">
          <mxGeometry x="270" y="280" width="50" height="50" as="geometry" />
        </mxCell>
        <mxCell id="qHqgIJDqdc0Txp3HUpsl-50" value="" style="ellipse;whiteSpace=wrap;html=1;aspect=fixed;" vertex="1" parent="1">
          <mxGeometry x="270" y="360" width="50" height="50" as="geometry" />
        </mxCell>
        <mxCell id="qHqgIJDqdc0Txp3HUpsl-51" value="" style="endArrow=none;html=1;rounded=0;entryX=0.5;entryY=1;entryDx=0;entryDy=0;exitX=0.5;exitY=0;exitDx=0;exitDy=0;" edge="1" parent="1" target="qHqgIJDqdc0Txp3HUpsl-50">
          <mxGeometry width="50" height="50" relative="1" as="geometry">
            <mxPoint x="295" y="440" as="sourcePoint" />
            <mxPoint x="434.58" y="440" as="targetPoint" />
          </mxGeometry>
        </mxCell>
        <mxCell id="qHqgIJDqdc0Txp3HUpsl-53" value="" style="endArrow=none;html=1;rounded=0;entryX=0.5;entryY=1;entryDx=0;entryDy=0;" edge="1" parent="1">
          <mxGeometry width="50" height="50" relative="1" as="geometry">
            <mxPoint x="295" y="550" as="sourcePoint" />
            <mxPoint x="295" y="490" as="targetPoint" />
          </mxGeometry>
        </mxCell>
        <mxCell id="qHqgIJDqdc0Txp3HUpsl-54" value="No.2020" style="text;html=1;align=center;verticalAlign=middle;resizable=0;points=[];autosize=1;strokeColor=none;fillColor=none;" vertex="1" parent="1">
          <mxGeometry x="260" y="30" width="70" height="30" as="geometry" />
        </mxCell>
        <mxCell id="qHqgIJDqdc0Txp3HUpsl-55" value="T&lt;font style=&quot;font-size: 10px;&quot;&gt;ornear el diametro ext pequeÃ±o &lt;br&gt;y cortar&lt;/font&gt;" style="text;html=1;align=center;verticalAlign=middle;resizable=0;points=[];autosize=1;strokeColor=none;fillColor=none;" vertex="1" parent="1">
          <mxGeometry x="317.5" y="80" width="170" height="40" as="geometry" />
        </mxCell>
        <mxCell id="qHqgIJDqdc0Txp3HUpsl-56" value="&lt;font style=&quot;font-size: 10px;&quot;&gt;Tornear el diametro ext grande&lt;br&gt;&amp;nbsp;y taladrar&lt;/font&gt;" style="text;html=1;align=center;verticalAlign=middle;resizable=0;points=[];autosize=1;strokeColor=none;fillColor=none;" vertex="1" parent="1">
          <mxGeometry x="320" y="140" width="160" height="40" as="geometry" />
        </mxCell>
        <mxCell id="qHqgIJDqdc0Txp3HUpsl-57" value="Fresar la ranura" style="text;html=1;align=center;verticalAlign=middle;resizable=0;points=[];autosize=1;strokeColor=none;fillColor=none;" vertex="1" parent="1">
          <mxGeometry x="337.5" y="212.5" width="110" height="30" as="geometry" />
        </mxCell>
        <mxCell id="qHqgIJDqdc0Txp3HUpsl-58" value="quitar viruta" style="text;html=1;align=center;verticalAlign=middle;resizable=0;points=[];autosize=1;strokeColor=none;fillColor=none;" vertex="1" parent="1">
          <mxGeometry x="347.5" y="290" width="90" height="30" as="geometry" />
        </mxCell>
        <mxCell id="qHqgIJDqdc0Txp3HUpsl-59" value="platear" style="text;html=1;align=center;verticalAlign=middle;resizable=0;points=[];autosize=1;strokeColor=none;fillColor=none;" vertex="1" parent="1">
          <mxGeometry x="377.5" y="365" width="60" height="30" as="geometry" />
        </mxCell>
        <mxCell id="qHqgIJDqdc0Txp3HUpsl-60" value="" style="ellipse;whiteSpace=wrap;html=1;aspect=fixed;" vertex="1" parent="1">
          <mxGeometry x="520" y="80" width="50" height="50" as="geometry" />
        </mxCell>
        <mxCell id="qHqgIJDqdc0Txp3HUpsl-61" value="" style="endArrow=none;html=1;rounded=0;entryX=0.5;entryY=1;entryDx=0;entryDy=0;exitX=0.5;exitY=0;exitDx=0;exitDy=0;" edge="1" parent="1" source="qHqgIJDqdc0Txp3HUpsl-62" target="qHqgIJDqdc0Txp3HUpsl-60">
          <mxGeometry width="50" height="50" relative="1" as="geometry">
            <mxPoint x="544.58" y="220" as="sourcePoint" />
            <mxPoint x="544.58" y="170" as="targetPoint" />
          </mxGeometry>
        </mxCell>
        <mxCell id="qHqgIJDqdc0Txp3HUpsl-62" value="" style="ellipse;whiteSpace=wrap;html=1;aspect=fixed;" vertex="1" parent="1">
          <mxGeometry x="517.5" y="150" width="50" height="50" as="geometry" />
        </mxCell>
        <mxCell id="qHqgIJDqdc0Txp3HUpsl-63" value="" style="endArrow=none;html=1;rounded=0;entryX=0.5;entryY=1;entryDx=0;entryDy=0;" edge="1" parent="1" source="qHqgIJDqdc0Txp3HUpsl-67" target="qHqgIJDqdc0Txp3HUpsl-62">
          <mxGeometry width="50" height="50" relative="1" as="geometry">
            <mxPoint x="545" y="330" as="sourcePoint" />
            <mxPoint x="925" y="230" as="targetPoint" />
          </mxGeometry>
        </mxCell>
        <mxCell id="qHqgIJDqdc0Txp3HUpsl-64" value="" style="endArrow=none;html=1;rounded=0;entryX=0.5;entryY=1;entryDx=0;entryDy=0;exitX=0.5;exitY=0;exitDx=0;exitDy=0;" edge="1" parent="1" target="qHqgIJDqdc0Txp3HUpsl-67">
          <mxGeometry width="50" height="50" relative="1" as="geometry">
            <mxPoint x="545" y="300" as="sourcePoint" />
            <mxPoint x="544.58" y="400" as="targetPoint" />
          </mxGeometry>
        </mxCell>
        <mxCell id="qHqgIJDqdc0Txp3HUpsl-66" value="" style="endArrow=none;html=1;rounded=0;entryX=0.5;entryY=1;entryDx=0;entryDy=0;" edge="1" parent="1" target="qHqgIJDqdc0Txp3HUpsl-67">
          <mxGeometry width="50" height="50" relative="1" as="geometry">
            <mxPoint x="545" y="300" as="sourcePoint" />
            <mxPoint x="545" y="200" as="targetPoint" />
          </mxGeometry>
        </mxCell>
        <mxCell id="qHqgIJDqdc0Txp3HUpsl-67" value="" style="ellipse;whiteSpace=wrap;html=1;aspect=fixed;" vertex="1" parent="1">
          <mxGeometry x="522.5" y="225" width="45" height="45" as="geometry" />
        </mxCell>
        <mxCell id="qHqgIJDqdc0Txp3HUpsl-74" value="No.2040" style="text;html=1;align=center;verticalAlign=middle;resizable=0;points=[];autosize=1;strokeColor=none;fillColor=none;" vertex="1" parent="1">
          <mxGeometry x="510" y="50" width="70" height="30" as="geometry" />
        </mxCell>
        <mxCell id="qHqgIJDqdc0Txp3HUpsl-75" value="Tornear" style="text;html=1;align=center;verticalAlign=middle;resizable=0;points=[];autosize=1;strokeColor=none;fillColor=none;" vertex="1" parent="1">
          <mxGeometry x="605" y="90" width="60" height="30" as="geometry" />
        </mxCell>
        <mxCell id="qHqgIJDqdc0Txp3HUpsl-76" value="Taladrar" style="text;html=1;align=center;verticalAlign=middle;resizable=0;points=[];autosize=1;strokeColor=none;fillColor=none;" vertex="1" parent="1">
          <mxGeometry x="600" y="160" width="70" height="30" as="geometry" />
        </mxCell>
        <mxCell id="qHqgIJDqdc0Txp3HUpsl-77" value="Escoriar y cortar" style="text;html=1;align=center;verticalAlign=middle;resizable=0;points=[];autosize=1;strokeColor=none;fillColor=none;" vertex="1" parent="1">
          <mxGeometry x="587.5" y="232.5" width="110" height="30" as="geometry" />
        </mxCell>
        <mxCell id="qHqgIJDqdc0Txp3HUpsl-78" value="inspeccionar" style="text;html=1;align=center;verticalAlign=middle;resizable=0;points=[];autosize=1;strokeColor=none;fillColor=none;" vertex="1" parent="1">
          <mxGeometry x="597.5" y="310" width="90" height="30" as="geometry" />
        </mxCell>
        <mxCell id="qHqgIJDqdc0Txp3HUpsl-94" value="No. 2060" style="text;html=1;align=center;verticalAlign=middle;resizable=0;points=[];autosize=1;strokeColor=none;fillColor=none;" vertex="1" parent="1">
          <mxGeometry x="812.5" y="60" width="70" height="30" as="geometry" />
        </mxCell>
        <mxCell id="qHqgIJDqdc0Txp3HUpsl-120" value="" style="whiteSpace=wrap;html=1;aspect=fixed;" vertex="1" parent="1">
          <mxGeometry x="42.5" y="360" width="50" height="50" as="geometry" />
        </mxCell>
        <mxCell id="qHqgIJDqdc0Txp3HUpsl-124" value="Inspeccionar" style="text;html=1;align=center;verticalAlign=middle;resizable=0;points=[];autosize=1;strokeColor=none;fillColor=none;" vertex="1" parent="1">
          <mxGeometry x="315" y="448" width="90" height="30" as="geometry" />
        </mxCell>
        <mxCell id="qHqgIJDqdc0Txp3HUpsl-125" value="" style="whiteSpace=wrap;html=1;aspect=fixed;" vertex="1" parent="1">
          <mxGeometry x="270" y="438" width="50" height="50" as="geometry" />
        </mxCell>
        <mxCell id="qHqgIJDqdc0Txp3HUpsl-126" value="" style="whiteSpace=wrap;html=1;aspect=fixed;" vertex="1" parent="1">
          <mxGeometry x="525" y="295" width="45" height="45" as="geometry" />
        </mxCell>
        <mxCell id="qHqgIJDqdc0Txp3HUpsl-128" value="" style="ellipse;whiteSpace=wrap;html=1;aspect=fixed;" vertex="1" parent="1">
          <mxGeometry x="792.5" y="110" width="50" height="50" as="geometry" />
        </mxCell>
        <mxCell id="qHqgIJDqdc0Txp3HUpsl-129" value="" style="endArrow=none;html=1;rounded=0;entryX=0.5;entryY=1;entryDx=0;entryDy=0;exitX=0.5;exitY=0;exitDx=0;exitDy=0;" edge="1" parent="1" source="qHqgIJDqdc0Txp3HUpsl-130" target="qHqgIJDqdc0Txp3HUpsl-128">
          <mxGeometry width="50" height="50" relative="1" as="geometry">
            <mxPoint x="817.08" y="250" as="sourcePoint" />
            <mxPoint x="817.08" y="200" as="targetPoint" />
          </mxGeometry>
        </mxCell>
        <mxCell id="qHqgIJDqdc0Txp3HUpsl-130" value="" style="ellipse;whiteSpace=wrap;html=1;aspect=fixed;" vertex="1" parent="1">
          <mxGeometry x="790" y="180" width="50" height="50" as="geometry" />
        </mxCell>
        <mxCell id="qHqgIJDqdc0Txp3HUpsl-131" value="" style="endArrow=none;html=1;rounded=0;entryX=0.5;entryY=1;entryDx=0;entryDy=0;" edge="1" parent="1" source="qHqgIJDqdc0Txp3HUpsl-134" target="qHqgIJDqdc0Txp3HUpsl-130">
          <mxGeometry width="50" height="50" relative="1" as="geometry">
            <mxPoint x="817.5" y="360" as="sourcePoint" />
            <mxPoint x="1197.5" y="260" as="targetPoint" />
          </mxGeometry>
        </mxCell>
        <mxCell id="qHqgIJDqdc0Txp3HUpsl-132" value="" style="endArrow=none;html=1;rounded=0;entryX=0.5;entryY=1;entryDx=0;entryDy=0;exitX=0.5;exitY=0;exitDx=0;exitDy=0;" edge="1" parent="1" target="qHqgIJDqdc0Txp3HUpsl-134">
          <mxGeometry width="50" height="50" relative="1" as="geometry">
            <mxPoint x="817.5" y="330" as="sourcePoint" />
            <mxPoint x="817.08" y="430" as="targetPoint" />
          </mxGeometry>
        </mxCell>
        <mxCell id="qHqgIJDqdc0Txp3HUpsl-133" value="" style="endArrow=none;html=1;rounded=0;entryX=0.5;entryY=1;entryDx=0;entryDy=0;" edge="1" parent="1" target="qHqgIJDqdc0Txp3HUpsl-134">
          <mxGeometry width="50" height="50" relative="1" as="geometry">
            <mxPoint x="817.5" y="330" as="sourcePoint" />
            <mxPoint x="817.5" y="230" as="targetPoint" />
          </mxGeometry>
        </mxCell>
        <mxCell id="qHqgIJDqdc0Txp3HUpsl-134" value="" style="ellipse;whiteSpace=wrap;html=1;aspect=fixed;" vertex="1" parent="1">
          <mxGeometry x="795" y="255" width="45" height="45" as="geometry" />
        </mxCell>
        <mxCell id="qHqgIJDqdc0Txp3HUpsl-135" value="Tornear" style="text;html=1;align=center;verticalAlign=middle;resizable=0;points=[];autosize=1;strokeColor=none;fillColor=none;" vertex="1" parent="1">
          <mxGeometry x="877.5" y="120" width="60" height="30" as="geometry" />
        </mxCell>
        <mxCell id="qHqgIJDqdc0Txp3HUpsl-136" value="Taladrar" style="text;html=1;align=center;verticalAlign=middle;resizable=0;points=[];autosize=1;strokeColor=none;fillColor=none;" vertex="1" parent="1">
          <mxGeometry x="872.5" y="190" width="70" height="30" as="geometry" />
        </mxCell>
        <mxCell id="qHqgIJDqdc0Txp3HUpsl-137" value="inspeccionar" style="text;html=1;align=center;verticalAlign=middle;resizable=0;points=[];autosize=1;strokeColor=none;fillColor=none;" vertex="1" parent="1">
          <mxGeometry x="870" y="340" width="90" height="30" as="geometry" />
        </mxCell>
        <mxCell id="qHqgIJDqdc0Txp3HUpsl-138" value="" style="whiteSpace=wrap;html=1;aspect=fixed;" vertex="1" parent="1">
          <mxGeometry x="797.5" y="325" width="45" height="45" as="geometry" />
        </mxCell>
        <mxCell id="qHqgIJDqdc0Txp3HUpsl-139" value="Escoriar y cortar" style="text;html=1;align=center;verticalAlign=middle;resizable=0;points=[];autosize=1;strokeColor=none;fillColor=none;" vertex="1" parent="1">
          <mxGeometry x="860" y="260" width="110" height="30" as="geometry" />
        </mxCell>
        <mxCell id="qHqgIJDqdc0Txp3HUpsl-140" value="No. 2080" style="text;html=1;align=center;verticalAlign=middle;resizable=0;points=[];autosize=1;strokeColor=none;fillColor=none;" vertex="1" parent="1">
          <mxGeometry x="1112.5" y="60" width="70" height="30" as="geometry" />
        </mxCell>
        <mxCell id="qHqgIJDqdc0Txp3HUpsl-141" value="" style="ellipse;whiteSpace=wrap;html=1;aspect=fixed;" vertex="1" parent="1">
          <mxGeometry x="1092.5" y="110" width="50" height="50" as="geometry" />
        </mxCell>
        <mxCell id="qHqgIJDqdc0Txp3HUpsl-142" value="" style="endArrow=none;html=1;rounded=0;entryX=0.5;entryY=1;entryDx=0;entryDy=0;exitX=0.5;exitY=0;exitDx=0;exitDy=0;" edge="1" parent="1" source="qHqgIJDqdc0Txp3HUpsl-143" target="qHqgIJDqdc0Txp3HUpsl-141">
          <mxGeometry width="50" height="50" relative="1" as="geometry">
            <mxPoint x="1117.08" y="250" as="sourcePoint" />
            <mxPoint x="1117.08" y="200" as="targetPoint" />
          </mxGeometry>
        </mxCell>
        <mxCell id="qHqgIJDqdc0Txp3HUpsl-143" value="" style="ellipse;whiteSpace=wrap;html=1;aspect=fixed;" vertex="1" parent="1">
          <mxGeometry x="1090" y="180" width="50" height="50" as="geometry" />
        </mxCell>
        <mxCell id="qHqgIJDqdc0Txp3HUpsl-144" value="" style="endArrow=none;html=1;rounded=0;entryX=0.5;entryY=1;entryDx=0;entryDy=0;" edge="1" parent="1" source="qHqgIJDqdc0Txp3HUpsl-147" target="qHqgIJDqdc0Txp3HUpsl-143">
          <mxGeometry width="50" height="50" relative="1" as="geometry">
            <mxPoint x="1117.5" y="360" as="sourcePoint" />
            <mxPoint x="1497.5" y="260" as="targetPoint" />
          </mxGeometry>
        </mxCell>
        <mxCell id="qHqgIJDqdc0Txp3HUpsl-145" value="" style="endArrow=none;html=1;rounded=0;entryX=0.5;entryY=1;entryDx=0;entryDy=0;exitX=0.5;exitY=0;exitDx=0;exitDy=0;" edge="1" parent="1" target="qHqgIJDqdc0Txp3HUpsl-147">
          <mxGeometry width="50" height="50" relative="1" as="geometry">
            <mxPoint x="1117.5" y="330" as="sourcePoint" />
            <mxPoint x="1117.08" y="430" as="targetPoint" />
          </mxGeometry>
        </mxCell>
        <mxCell id="qHqgIJDqdc0Txp3HUpsl-146" value="" style="endArrow=none;html=1;rounded=0;entryX=0.5;entryY=1;entryDx=0;entryDy=0;" edge="1" parent="1" target="qHqgIJDqdc0Txp3HUpsl-147">
          <mxGeometry width="50" height="50" relative="1" as="geometry">
            <mxPoint x="1117.5" y="330" as="sourcePoint" />
            <mxPoint x="1117.5" y="230" as="targetPoint" />
          </mxGeometry>
        </mxCell>
        <mxCell id="qHqgIJDqdc0Txp3HUpsl-147" value="" style="ellipse;whiteSpace=wrap;html=1;aspect=fixed;" vertex="1" parent="1">
          <mxGeometry x="1095" y="255" width="45" height="45" as="geometry" />
        </mxCell>
        <mxCell id="qHqgIJDqdc0Txp3HUpsl-148" value="Tornear" style="text;html=1;align=center;verticalAlign=middle;resizable=0;points=[];autosize=1;strokeColor=none;fillColor=none;" vertex="1" parent="1">
          <mxGeometry x="1177.5" y="120" width="60" height="30" as="geometry" />
        </mxCell>
        <mxCell id="qHqgIJDqdc0Txp3HUpsl-149" value="Taladrar" style="text;html=1;align=center;verticalAlign=middle;resizable=0;points=[];autosize=1;strokeColor=none;fillColor=none;" vertex="1" parent="1">
          <mxGeometry x="1172.5" y="190" width="70" height="30" as="geometry" />
        </mxCell>
        <mxCell id="qHqgIJDqdc0Txp3HUpsl-150" value="inspeccionar" style="text;html=1;align=center;verticalAlign=middle;resizable=0;points=[];autosize=1;strokeColor=none;fillColor=none;" vertex="1" parent="1">
          <mxGeometry x="1172.5" y="405" width="90" height="30" as="geometry" />
        </mxCell>
        <mxCell id="qHqgIJDqdc0Txp3HUpsl-151" value="" style="whiteSpace=wrap;html=1;aspect=fixed;" vertex="1" parent="1">
          <mxGeometry x="1095" y="410" width="45" height="45" as="geometry" />
        </mxCell>
        <mxCell id="qHqgIJDqdc0Txp3HUpsl-152" value="Escoriar y cortar" style="text;html=1;align=center;verticalAlign=middle;resizable=0;points=[];autosize=1;strokeColor=none;fillColor=none;" vertex="1" parent="1">
          <mxGeometry x="1135" y="258" width="110" height="30" as="geometry" />
        </mxCell>
        <mxCell id="qHqgIJDqdc0Txp3HUpsl-153" value="" style="ellipse;whiteSpace=wrap;html=1;aspect=fixed;" vertex="1" parent="1">
          <mxGeometry x="1095" y="330" width="50" height="50" as="geometry" />
        </mxCell>
        <mxCell id="qHqgIJDqdc0Txp3HUpsl-154" value="" style="endArrow=none;html=1;rounded=0;entryX=0.5;entryY=1;entryDx=0;entryDy=0;exitX=0.5;exitY=0;exitDx=0;exitDy=0;" edge="1" parent="1" source="qHqgIJDqdc0Txp3HUpsl-151" target="qHqgIJDqdc0Txp3HUpsl-153">
          <mxGeometry width="50" height="50" relative="1" as="geometry">
            <mxPoint x="890" y="380" as="sourcePoint" />
            <mxPoint x="940" y="330" as="targetPoint" />
          </mxGeometry>
        </mxCell>
        <mxCell id="qHqgIJDqdc0Txp3HUpsl-155" value="Recubrir de cadmio" style="text;html=1;align=center;verticalAlign=middle;resizable=0;points=[];autosize=1;strokeColor=none;fillColor=none;" vertex="1" parent="1">
          <mxGeometry x="1145" y="328" width="130" height="30" as="geometry" />
        </mxCell>
        <mxCell id="qHqgIJDqdc0Txp3HUpsl-156" value="No.3000" style="text;html=1;align=center;verticalAlign=middle;resizable=0;points=[];autosize=1;strokeColor=none;fillColor=none;" vertex="1" parent="1">
          <mxGeometry x="1315" y="58" width="70" height="30" as="geometry" />
        </mxCell>
        <mxCell id="qHqgIJDqdc0Txp3HUpsl-157" value="" style="whiteSpace=wrap;html=1;aspect=fixed;" vertex="1" parent="1">
          <mxGeometry x="1315" y="100" width="80" height="80" as="geometry" />
        </mxCell>
        <mxCell id="qHqgIJDqdc0Txp3HUpsl-158" value="No.3020" style="text;html=1;align=center;verticalAlign=middle;resizable=0;points=[];autosize=1;strokeColor=none;fillColor=none;" vertex="1" parent="1">
          <mxGeometry x="1530" y="58" width="70" height="30" as="geometry" />
        </mxCell>
        <mxCell id="qHqgIJDqdc0Txp3HUpsl-159" value="" style="whiteSpace=wrap;html=1;aspect=fixed;" vertex="1" parent="1">
          <mxGeometry x="1525" y="95" width="80" height="80" as="geometry" />
        </mxCell>
        <mxCell id="qHqgIJDqdc0Txp3HUpsl-160" value="Inspeccionar" style="text;html=1;align=center;verticalAlign=middle;resizable=0;points=[];autosize=1;strokeColor=none;fillColor=none;" vertex="1" parent="1">
          <mxGeometry x="1395" y="130" width="90" height="30" as="geometry" />
        </mxCell>
        <mxCell id="qHqgIJDqdc0Txp3HUpsl-161" value="Inspeccionar" style="text;html=1;align=center;verticalAlign=middle;resizable=0;points=[];autosize=1;strokeColor=none;fillColor=none;" vertex="1" parent="1">
          <mxGeometry x="1615" y="128" width="90" height="30" as="geometry" />
        </mxCell>
        <mxCell id="qHqgIJDqdc0Txp3HUpsl-163" value="" style="endArrow=none;html=1;rounded=0;entryX=0.5;entryY=1;entryDx=0;entryDy=0;" edge="1" parent="1" target="qHqgIJDqdc0Txp3HUpsl-138">
          <mxGeometry width="50" height="50" relative="1" as="geometry">
            <mxPoint x="820" y="450" as="sourcePoint" />
            <mxPoint x="877.5" y="410" as="targetPoint" />
          </mxGeometry>
        </mxCell>
        <mxCell id="qHqgIJDqdc0Txp3HUpsl-164" value="" style="endArrow=none;html=1;rounded=0;" edge="1" parent="1">
          <mxGeometry width="50" height="50" relative="1" as="geometry">
            <mxPoint x="550" y="450" as="sourcePoint" />
            <mxPoint x="820" y="450" as="targetPoint" />
          </mxGeometry>
        </mxCell>
        <mxCell id="qHqgIJDqdc0Txp3HUpsl-165" value="" style="endArrow=none;html=1;rounded=0;entryX=0.5;entryY=1;entryDx=0;entryDy=0;" edge="1" parent="1" target="qHqgIJDqdc0Txp3HUpsl-126">
          <mxGeometry width="50" height="50" relative="1" as="geometry">
            <mxPoint x="548" y="450" as="sourcePoint" />
            <mxPoint x="610" y="330" as="targetPoint" />
          </mxGeometry>
        </mxCell>
        <mxCell id="qHqgIJDqdc0Txp3HUpsl-166" value="" style="endArrow=none;html=1;rounded=0;" edge="1" parent="1">
          <mxGeometry width="50" height="50" relative="1" as="geometry">
            <mxPoint x="550" y="510" as="sourcePoint" />
            <mxPoint x="550" y="450" as="targetPoint" />
          </mxGeometry>
        </mxCell>
        <mxCell id="qHqgIJDqdc0Txp3HUpsl-167" value="Subensamble 10" style="ellipse;whiteSpace=wrap;html=1;aspect=fixed;" vertex="1" parent="1">
          <mxGeometry x="510" y="500" width="80" height="80" as="geometry" />
        </mxCell>
        <mxCell id="qHqgIJDqdc0Txp3HUpsl-168" value="" style="endArrow=none;html=1;rounded=0;exitX=1.011;exitY=0.613;exitDx=0;exitDy=0;exitPerimeter=0;" edge="1" parent="1" source="qHqgIJDqdc0Txp3HUpsl-167">
          <mxGeometry width="50" height="50" relative="1" as="geometry">
            <mxPoint x="697.5" y="600" as="sourcePoint" />
            <mxPoint x="1120" y="550" as="targetPoint" />
          </mxGeometry>
        </mxCell>
        <mxCell id="qHqgIJDqdc0Txp3HUpsl-169" value="" style="endArrow=none;html=1;rounded=0;entryX=0.5;entryY=1;entryDx=0;entryDy=0;" edge="1" parent="1" target="qHqgIJDqdc0Txp3HUpsl-151">
          <mxGeometry width="50" height="50" relative="1" as="geometry">
            <mxPoint x="1118" y="550" as="sourcePoint" />
            <mxPoint x="880" y="370" as="targetPoint" />
          </mxGeometry>
        </mxCell>
        <mxCell id="qHqgIJDqdc0Txp3HUpsl-170" value="" style="endArrow=none;html=1;rounded=0;exitX=0.5;exitY=0;exitDx=0;exitDy=0;" edge="1" parent="1" source="qHqgIJDqdc0Txp3HUpsl-172">
          <mxGeometry width="50" height="50" relative="1" as="geometry">
            <mxPoint x="1120" y="610" as="sourcePoint" />
            <mxPoint x="1120" y="550" as="targetPoint" />
          </mxGeometry>
        </mxCell>
        <mxCell id="qHqgIJDqdc0Txp3HUpsl-172" value="Subensamble 20" style="ellipse;whiteSpace=wrap;html=1;aspect=fixed;" vertex="1" parent="1">
          <mxGeometry x="1080" y="640" width="80" height="80" as="geometry" />
        </mxCell>
        <mxCell id="qHqgIJDqdc0Txp3HUpsl-173" value="" style="endArrow=none;html=1;rounded=0;" edge="1" parent="1">
          <mxGeometry width="50" height="50" relative="1" as="geometry">
            <mxPoint x="300" y="550" as="sourcePoint" />
            <mxPoint x="70" y="540" as="targetPoint" />
          </mxGeometry>
        </mxCell>
        <mxCell id="qHqgIJDqdc0Txp3HUpsl-174" value="" style="endArrow=none;html=1;rounded=0;" edge="1" parent="1" target="qHqgIJDqdc0Txp3HUpsl-175">
          <mxGeometry width="50" height="50" relative="1" as="geometry">
            <mxPoint x="70" y="540" as="sourcePoint" />
            <mxPoint x="70" y="540" as="targetPoint" />
          </mxGeometry>
        </mxCell>
        <mxCell id="qHqgIJDqdc0Txp3HUpsl-175" value="SubEnsamble30" style="ellipse;whiteSpace=wrap;html=1;aspect=fixed;" vertex="1" parent="1">
          <mxGeometry x="42.5" y="590" width="80" height="80" as="geometry" />
        </mxCell>
        <mxCell id="qHqgIJDqdc0Txp3HUpsl-176" value="" style="endArrow=none;html=1;rounded=0;entryX=0.5;entryY=1;entryDx=0;entryDy=0;" edge="1" parent="1" target="qHqgIJDqdc0Txp3HUpsl-157">
          <mxGeometry width="50" height="50" relative="1" as="geometry">
            <mxPoint x="1355" y="860" as="sourcePoint" />
            <mxPoint x="940" y="360" as="targetPoint" />
          </mxGeometry>
        </mxCell>
        <mxCell id="qHqgIJDqdc0Txp3HUpsl-177" value="" style="endArrow=none;html=1;rounded=0;entryX=0.5;entryY=1;entryDx=0;entryDy=0;" edge="1" parent="1" target="qHqgIJDqdc0Txp3HUpsl-159">
          <mxGeometry width="50" height="50" relative="1" as="geometry">
            <mxPoint x="1568.75" y="870" as="sourcePoint" />
            <mxPoint x="1568.75" y="190" as="targetPoint" />
          </mxGeometry>
        </mxCell>
        <mxCell id="qHqgIJDqdc0Txp3HUpsl-178" value="" style="endArrow=none;html=1;rounded=0;" edge="1" parent="1">
          <mxGeometry width="50" height="50" relative="1" as="geometry">
            <mxPoint x="1350" y="860" as="sourcePoint" />
            <mxPoint x="1570" y="870" as="targetPoint" />
          </mxGeometry>
        </mxCell>
        <mxCell id="qHqgIJDqdc0Txp3HUpsl-179" value="" style="endArrow=none;html=1;rounded=0;exitX=1;exitY=0.5;exitDx=0;exitDy=0;" edge="1" parent="1" source="qHqgIJDqdc0Txp3HUpsl-175">
          <mxGeometry width="50" height="50" relative="1" as="geometry">
            <mxPoint x="620" y="860" as="sourcePoint" />
            <mxPoint x="1360" y="860" as="targetPoint" />
          </mxGeometry>
        </mxCell>
      </root>
    </mxGraphModel>
  </diagram>
</mxfile>
